<svg width="453" height="420" viewBox="0 0 453 420" fill="none" xmlns="http://www.w3.org/2000/svg">
<path d="M191.758 74.1176C256.171 101.152 271.245 119.559 320.559 93.537C379.161 62.6148 452.571 95.5801 452.571 161.84V230.897C452.571 301.591 355.111 339.395 284.58 344.19C265.355 345.496 246.488 351.358 229.017 363.529C132.765 430.588 11.6729 345.882 0.805733 247.059C-10.0615 148.235 90.8484 31.7647 191.758 74.1176Z" fill="white"/>
<path d="M84.112 244.672C80.592 244.672 77.424 243.936 74.608 242.464C71.824 240.96 69.632 238.88 68.032 236.224C66.432 233.568 65.632 230.56 65.632 227.2C65.632 223.84 66.432 220.832 68.032 218.176C69.632 215.52 71.824 213.456 74.608 211.984C77.424 210.48 80.592 209.728 84.112 209.728C87.184 209.728 89.952 210.272 92.416 211.36C94.88 212.448 96.928 214.016 98.56 216.064L92.512 221.536C90.336 218.912 87.696 217.6 84.592 217.6C82.768 217.6 81.136 218 79.696 218.8C78.288 219.6 77.184 220.736 76.384 222.208C75.616 223.648 75.232 225.312 75.232 227.2C75.232 229.088 75.616 230.768 76.384 232.24C77.184 233.68 78.288 234.8 79.696 235.6C81.136 236.4 82.768 236.8 84.592 236.8C87.696 236.8 90.336 235.488 92.512 232.864L98.56 238.336C96.928 240.384 94.88 241.952 92.416 243.04C89.952 244.128 87.184 244.672 84.112 244.672ZM134.766 210.4V244H125.262V230.896H112.302V244H102.798V210.4H112.302V223.024H125.262V210.4H134.766ZM158.413 244.672C154.861 244.672 151.661 243.92 148.813 242.416C145.997 240.912 143.773 238.832 142.141 236.176C140.541 233.52 139.741 230.528 139.741 227.2C139.741 223.872 140.541 220.88 142.141 218.224C143.773 215.568 145.997 213.488 148.813 211.984C151.661 210.48 154.861 209.728 158.413 209.728C161.965 209.728 165.149 210.48 167.965 211.984C170.813 213.488 173.037 215.568 174.637 218.224C176.269 220.88 177.085 223.872 177.085 227.2C177.085 230.528 176.269 233.52 174.637 236.176C173.037 238.832 170.813 240.912 167.965 242.416C165.149 243.92 161.965 244.672 158.413 244.672ZM158.413 236.8C160.109 236.8 161.645 236.4 163.021 235.6C164.397 234.8 165.485 233.68 166.285 232.24C167.085 230.768 167.485 229.088 167.485 227.2C167.485 225.312 167.085 223.648 166.285 222.208C165.485 220.736 164.397 219.6 163.021 218.8C161.645 218 160.109 217.6 158.413 217.6C156.717 217.6 155.181 218 153.805 218.8C152.429 219.6 151.341 220.736 150.541 222.208C149.741 223.648 149.341 225.312 149.341 227.2C149.341 229.088 149.741 230.768 150.541 232.24C151.341 233.68 152.429 234.8 153.805 235.6C155.181 236.4 156.717 236.8 158.413 236.8ZM182.063 210.4H191.567V236.464H207.599V244H182.063V210.4ZM211.36 210.4H220.864V244H211.36V210.4ZM239.434 244.672C236.714 244.672 234.074 244.336 231.514 243.664C228.954 242.992 226.874 242.096 225.274 240.976L228.394 233.968C229.898 234.96 231.642 235.76 233.626 236.368C235.61 236.976 237.562 237.28 239.482 237.28C243.13 237.28 244.954 236.368 244.954 234.544C244.954 233.584 244.426 232.88 243.37 232.432C242.346 231.952 240.682 231.456 238.378 230.944C235.85 230.4 233.738 229.824 232.042 229.216C230.346 228.576 228.89 227.568 227.674 226.192C226.458 224.816 225.85 222.96 225.85 220.624C225.85 218.576 226.41 216.736 227.53 215.104C228.65 213.44 230.314 212.128 232.522 211.168C234.762 210.208 237.498 209.728 240.73 209.728C242.938 209.728 245.114 209.984 247.258 210.496C249.402 210.976 251.29 211.696 252.922 212.656L249.994 219.712C246.794 217.984 243.69 217.12 240.682 217.12C238.794 217.12 237.418 217.408 236.554 217.984C235.69 218.528 235.258 219.248 235.258 220.144C235.258 221.04 235.77 221.712 236.794 222.16C237.818 222.608 239.466 223.072 241.738 223.552C244.298 224.096 246.41 224.688 248.074 225.328C249.77 225.936 251.226 226.928 252.442 228.304C253.69 229.648 254.314 231.488 254.314 233.824C254.314 235.84 253.754 237.664 252.634 239.296C251.514 240.928 249.834 242.24 247.594 243.232C245.354 244.192 242.634 244.672 239.434 244.672Z" fill="#6CD0DB"/>
<path d="M325.377 210.4L314.481 244H304.305L297.873 223.552L291.153 244H280.977L270.081 210.4H279.873L286.641 231.856L293.745 210.4H302.481L309.249 232.048L316.305 210.4H325.377ZM353.02 231.04C353.02 231.104 352.972 231.856 352.876 233.296H333.964C334.348 234.64 335.084 235.68 336.172 236.416C337.292 237.12 338.684 237.472 340.348 237.472C341.596 237.472 342.668 237.296 343.564 236.944C344.492 236.592 345.42 236.016 346.348 235.216L351.148 240.208C348.62 243.024 344.924 244.432 340.06 244.432C337.02 244.432 334.348 243.856 332.044 242.704C329.74 241.552 327.948 239.952 326.668 237.904C325.42 235.856 324.796 233.536 324.796 230.944C324.796 228.384 325.404 226.096 326.62 224.08C327.868 222.032 329.58 220.432 331.756 219.28C333.932 218.128 336.38 217.552 339.1 217.552C341.692 217.552 344.044 218.096 346.156 219.184C348.268 220.24 349.932 221.792 351.148 223.84C352.396 225.856 353.02 228.256 353.02 231.04ZM339.148 224.032C337.74 224.032 336.556 224.432 335.596 225.232C334.668 226.032 334.076 227.12 333.82 228.496H344.476C344.22 227.12 343.612 226.032 342.652 225.232C341.724 224.432 340.556 224.032 339.148 224.032ZM373.593 217.552C375.961 217.552 378.105 218.096 380.025 219.184C381.977 220.272 383.513 221.84 384.633 223.888C385.785 225.904 386.361 228.256 386.361 230.944C386.361 233.632 385.785 236 384.633 238.048C383.513 240.096 381.977 241.68 380.025 242.8C378.105 243.888 375.961 244.432 373.593 244.432C370.169 244.432 367.609 243.424 365.913 241.408V244H357.225V208.384H366.345V220.24C368.105 218.448 370.521 217.552 373.593 217.552ZM371.673 237.184C373.273 237.184 374.585 236.64 375.609 235.552C376.633 234.432 377.145 232.896 377.145 230.944C377.145 229.024 376.633 227.52 375.609 226.432C374.585 225.344 373.273 224.8 371.673 224.8C370.073 224.8 368.761 225.344 367.737 226.432C366.713 227.52 366.201 229.024 366.201 230.944C366.201 232.896 366.713 234.432 367.737 235.552C368.761 236.64 370.073 237.184 371.673 237.184Z" fill="black"/>
</svg>
